<svg width="306" height="45" viewBox="0 0 306 45" fill="none" xmlns="http://www.w3.org/2000/svg">
<path d="M22.176 3.848H26.208C26.976 3.848 27.36 4.18933 27.36 4.872V35.08C27.36 38.1947 26.464 40.6267 24.672 42.376C22.9227 44.1253 20.4907 45 17.376 45H10.272C7.15733 45 4.72533 44.1253 2.976 42.376C1.22667 40.6267 0.352 38.1947 0.352 35.08V4.936C0.352 4.21067 0.714667 3.848 1.44 3.848H5.472C6.19733 3.848 6.56 4.21067 6.56 4.936V34.824C6.56 37.9813 8.096 39.56 11.168 39.56H16.416C19.5307 39.56 21.088 37.9813 21.088 34.824V4.936C21.088 4.21067 21.4507 3.848 22.176 3.848ZM41.097 45H37.065C36.3397 45 35.977 44.6373 35.977 43.912V1.096C35.977 0.370665 36.3397 0.00799942 37.065 0.00799942H41.097C41.8223 0.00799942 42.185 0.370665 42.185 1.096V43.912C42.185 44.6373 41.8223 45 41.097 45ZM51.5545 17.8H48.4825C48.0558 17.8 47.7572 17.736 47.5865 17.608C47.4585 17.4373 47.3945 17.16 47.3945 16.776V13.448C47.3945 12.7227 47.7572 12.36 48.4825 12.36H51.5545C51.9812 12.36 52.1945 12.1467 52.1945 11.72V5.96C52.1945 5.23466 52.5785 4.872 53.3465 4.872H57.3785C58.1038 4.872 58.4665 5.23466 58.4665 5.96V11.72C58.4665 12.1467 58.7012 12.36 59.1705 12.36H65.1225C65.8905 12.36 66.2745 12.7227 66.2745 13.448V16.776C66.2745 17.4587 65.8905 17.8 65.1225 17.8H59.1705C58.7012 17.8 58.4665 18.0133 58.4665 18.44V34.888C58.4665 38.0027 60.0665 39.56 63.2665 39.56H65.7625C66.5305 39.56 66.9145 39.9227 66.9145 40.648V43.976C66.9145 44.6587 66.5305 45 65.7625 45H62.3065C59.1492 45 56.6745 44.1467 54.8825 42.44C53.0905 40.7333 52.1945 38.3227 52.1945 35.208V18.44C52.1945 18.0133 51.9812 17.8 51.5545 17.8ZM78.152 45H74.12C73.3947 45 73.032 44.6373 73.032 43.912V13.448C73.032 12.7227 73.3947 12.36 74.12 12.36H78.152C78.8773 12.36 79.24 12.7227 79.24 13.448V15.88H79.496C79.9227 14.8133 80.7333 13.96 81.928 13.32C83.1653 12.68 84.5307 12.36 86.024 12.36H88.392C89.1173 12.36 89.48 12.7227 89.48 13.448V16.776C89.48 17.5867 89.1173 17.928 88.392 17.8H84.552C81.0107 17.8 79.24 19.7413 79.24 23.624V43.912C79.24 44.6373 78.8773 45 78.152 45ZM106.246 45H103.75C100.592 45 98.1388 44.1253 96.3895 42.376C94.6828 40.6267 93.8295 38.1947 93.8295 35.08V22.28C93.8295 19.1227 94.6828 16.6907 96.3895 14.984C98.1388 13.2347 100.592 12.36 103.75 12.36H118.086C118.854 12.36 119.238 12.7227 119.238 13.448V43.912C119.238 44.6373 118.854 45 118.086 45H114.054C113.328 45 112.966 44.6373 112.966 43.912V41.608H112.71C111.686 43.8693 109.531 45 106.246 45ZM112.966 34.12V18.44C112.966 18.0133 112.731 17.8 112.262 17.8H104.646C101.574 17.8 100.038 19.3787 100.038 22.536V34.824C100.038 37.9813 101.574 39.56 104.646 39.56H107.718C111.216 39.56 112.966 37.7467 112.966 34.12ZM171.27 3.848H178.438C179.163 3.848 179.526 4.21067 179.526 4.936V43.912C179.526 44.6373 179.163 45 178.438 45H174.47C173.744 45 173.382 44.6373 173.382 43.912V11.592H173.126L164.806 35.016C164.55 35.6987 164.08 36.04 163.398 36.04H159.302C158.662 36.04 158.214 35.6987 157.958 35.016L149.446 11.528H149.19V43.912C149.19 44.3387 149.104 44.6373 148.934 44.808C148.806 44.936 148.528 45 148.102 45H144.198C143.472 45 143.11 44.6373 143.11 43.912V4.936C143.11 4.21067 143.472 3.848 144.198 3.848H151.366C151.835 3.848 152.176 4.08267 152.39 4.552L161.158 29.256H161.478L170.31 4.552C170.395 4.08267 170.715 3.848 171.27 3.848ZM199.996 45H197.5C194.342 45 191.889 44.1253 190.14 42.376C188.433 40.6267 187.58 38.1947 187.58 35.08V22.28C187.58 19.1227 188.433 16.6907 190.14 14.984C191.889 13.2347 194.342 12.36 197.5 12.36H211.836C212.604 12.36 212.988 12.7227 212.988 13.448V43.912C212.988 44.6373 212.604 45 211.836 45H207.804C207.078 45 206.716 44.6373 206.716 43.912V41.608H206.46C205.436 43.8693 203.281 45 199.996 45ZM206.716 34.12V18.44C206.716 18.0133 206.481 17.8 206.012 17.8H198.396C195.324 17.8 193.788 19.3787 193.788 22.536V34.824C193.788 37.9813 195.324 39.56 198.396 39.56H201.468C204.966 39.56 206.716 37.7467 206.716 34.12ZM224.042 45H219.178C218.239 45 218.004 44.6373 218.474 43.912L226.986 28.36L218.666 13.448C218.196 12.7227 218.388 12.36 219.242 12.36H224.17C224.98 12.36 225.535 12.7227 225.834 13.448L231.018 24.456H231.274L236.138 13.448C236.436 12.7227 236.97 12.36 237.738 12.36H242.602C243.498 12.36 243.711 12.7227 243.242 13.448L235.178 28.296L243.882 43.912C244.308 44.6373 244.116 45 243.306 45H238.25C237.524 45 237.012 44.6373 236.714 43.912L231.274 32.584H231.018L225.642 43.912C225.343 44.6373 224.81 45 224.042 45ZM272.449 45H258.625C255.467 45 253.014 44.1253 251.265 42.376C249.558 40.6267 248.705 38.1947 248.705 35.08V22.28C248.705 19.1227 249.558 16.6907 251.265 14.984C253.014 13.2347 255.467 12.36 258.625 12.36H263.873C267.03 12.36 269.483 13.2347 271.233 14.984C272.982 16.6907 273.857 19.1227 273.857 22.28V30.408C273.857 31.176 273.473 31.56 272.705 31.56H255.553C255.083 31.56 254.849 31.7733 254.849 32.2V34.952C254.849 38.0667 256.406 39.624 259.521 39.624H272.449C273.217 39.624 273.601 40.008 273.601 40.776V43.976C273.601 44.6587 273.217 45 272.449 45ZM255.553 27.208H267.009C267.435 27.208 267.649 26.9947 267.649 26.568V22.472C267.649 20.8507 267.286 19.6773 266.561 18.952C265.835 18.184 264.662 17.8 263.041 17.8H259.521C257.899 17.8 256.726 18.184 256.001 18.952C255.275 19.6773 254.913 20.8507 254.913 22.472V26.568C254.913 26.9947 255.126 27.208 255.553 27.208ZM293.067 45H289.803C286.731 45 284.363 44.1467 282.699 42.44C281.078 40.6907 280.267 38.2373 280.267 35.08V22.28C280.267 19.08 281.078 16.6267 282.699 14.92C284.363 13.2133 286.731 12.36 289.803 12.36H293.067C296.352 12.36 298.486 13.4907 299.467 15.752H299.723V1.096C299.723 0.370665 300.086 0.00799942 300.811 0.00799942H304.907C305.632 0.00799942 305.995 0.370665 305.995 1.096V43.912C305.995 44.6373 305.632 45 304.907 45H300.811C300.086 45 299.723 44.6373 299.723 43.912V41.608H299.467C298.486 43.8693 296.352 45 293.067 45ZM299.723 34.12V23.24C299.723 19.6133 297.974 17.8 294.475 17.8H291.083C288.011 17.8 286.475 19.3787 286.475 22.536V34.824C286.475 37.9813 288.011 39.56 291.083 39.56H294.475C297.974 39.56 299.723 37.7467 299.723 34.12Z" fill="white"/>
</svg>
